<?xml version="1.0" encoding="UTF-8"?>
<svg version="1.1" xmlns="http://www.w3.org/2000/svg" width="24" height="24">
<path d="M0 0 C0.73734375 0.00773438 1.4746875 0.01546875 2.234375 0.0234375 C3.34039063 0.01183594 3.34039063 0.01183594 4.46875 0 C9.9810554 0.0201179 9.9810554 0.0201179 12.234375 2.2734375 C12.93303761 8.16216523 12.2392952 11.15597298 8.62109375 15.828125 C7.234375 17.2734375 7.234375 17.2734375 4.234375 19.2734375 C0.5847788 19.17739549 -0.68626114 18.343573 -3.453125 15.8984375 C-6.35276507 12.60695418 -8.04848241 10.6056162 -8.015625 6.2109375 C-7.62473633 0.05444102 -5.69954787 0.02080127 0 0 Z M-5.765625 3.2734375 C-6.43913269 5.97356097 -6.43913269 5.97356097 -5.765625 9.2734375 C-3.67521173 12.18433798 -1.29049837 14.73568213 1.234375 17.2734375 C5.40423075 15.38452849 7.60800124 13.06708849 10.234375 9.2734375 C10.73703192 6.06183054 10.73703192 6.06183054 10.234375 3.2734375 C9.10124744 1.91482857 9.10124744 1.91482857 6.109375 2.140625 C4.830625 2.14320312 3.551875 2.14578125 2.234375 2.1484375 C0.955625 2.14585938 -0.323125 2.14328125 -1.640625 2.140625 C-4.63249744 1.91482857 -4.63249744 1.91482857 -5.765625 3.2734375 Z " fill="#F5EFEF" transform="translate(9.765625,2.7265625)"/>
</svg>
